<mxfile host="app.diagrams.net" modified="2023-06-08T09:35:28.305Z" agent="Mozilla/5.0 (Windows NT 10.0; Win64; x64; rv:109.0) Gecko/20100101 Firefox/113.0" etag="9z8O1RVcJz7_0NkJDO6m" version="21.3.7" type="github">
  <diagram name="Page-1" id="2YBvvXClWsGukQMizWep">
    <mxGraphModel dx="1687" dy="878" grid="1" gridSize="10" guides="1" tooltips="1" connect="1" arrows="1" fold="1" page="1" pageScale="1" pageWidth="850" pageHeight="1100" math="0" shadow="0">
      <root>
        <mxCell id="0" />
        <mxCell id="1" parent="0" />
        <mxCell id="VGT_hSf0nk_PRfutWHFS-78" value="" style="curved=1;endArrow=classic;html=1;rounded=0;exitX=0.385;exitY=1.113;exitDx=0;exitDy=0;exitPerimeter=0;entryX=0;entryY=0.75;entryDx=0;entryDy=0;" parent="1" source="VGT_hSf0nk_PRfutWHFS-3" target="VGT_hSf0nk_PRfutWHFS-71" edge="1">
          <mxGeometry width="50" height="50" relative="1" as="geometry">
            <mxPoint x="640" y="290" as="sourcePoint" />
            <mxPoint x="690" y="240" as="targetPoint" />
            <Array as="points">
              <mxPoint x="230" y="460" />
              <mxPoint x="250" y="260" />
              <mxPoint x="310" y="130" />
              <mxPoint x="420" y="90" />
              <mxPoint x="420" y="280" />
              <mxPoint x="550" y="400" />
              <mxPoint x="660" y="490" />
            </Array>
          </mxGeometry>
        </mxCell>
        <mxCell id="VGT_hSf0nk_PRfutWHFS-42" value="" style="ellipse;whiteSpace=wrap;html=1;rotation=15;" parent="1" vertex="1">
          <mxGeometry x="434.91" y="155.65" width="15" height="20" as="geometry" />
        </mxCell>
        <mxCell id="VGT_hSf0nk_PRfutWHFS-16" value="" style="rounded=0;whiteSpace=wrap;html=1;rotation=30;" parent="1" vertex="1">
          <mxGeometry x="200" y="283" width="100" height="10" as="geometry" />
        </mxCell>
        <mxCell id="VGT_hSf0nk_PRfutWHFS-15" value="" style="rounded=0;whiteSpace=wrap;html=1;rotation=-30;" parent="1" vertex="1">
          <mxGeometry x="200.67" y="282.5" width="90" height="10" as="geometry" />
        </mxCell>
        <mxCell id="VGT_hSf0nk_PRfutWHFS-1" value="" style="shape=cylinder3;whiteSpace=wrap;html=1;boundedLbl=1;backgroundOutline=1;size=15;" parent="1" vertex="1">
          <mxGeometry x="160" y="415" width="40" height="90" as="geometry" />
        </mxCell>
        <mxCell id="VGT_hSf0nk_PRfutWHFS-3" value="" style="shape=cylinder3;whiteSpace=wrap;html=1;boundedLbl=1;backgroundOutline=1;size=15;rotation=-90;" parent="1" vertex="1">
          <mxGeometry x="80" y="440" width="60" height="40" as="geometry" />
        </mxCell>
        <mxCell id="VGT_hSf0nk_PRfutWHFS-4" value="" style="rounded=0;whiteSpace=wrap;html=1;" parent="1" vertex="1">
          <mxGeometry x="25" y="445" width="80" height="30" as="geometry" />
        </mxCell>
        <mxCell id="VGT_hSf0nk_PRfutWHFS-2" value="" style="shape=cylinder3;whiteSpace=wrap;html=1;boundedLbl=1;backgroundOutline=1;size=15;rotation=-90;" parent="1" vertex="1">
          <mxGeometry x="5" y="440" width="60" height="40" as="geometry" />
        </mxCell>
        <mxCell id="VGT_hSf0nk_PRfutWHFS-9" value="" style="endArrow=classic;html=1;rounded=0;edgeStyle=orthogonalEdgeStyle;curved=1;" parent="1" edge="1">
          <mxGeometry width="50" height="50" relative="1" as="geometry">
            <mxPoint x="130" y="440" as="sourcePoint" />
            <mxPoint x="180" y="410" as="targetPoint" />
            <Array as="points">
              <mxPoint x="130" y="390" />
            </Array>
          </mxGeometry>
        </mxCell>
        <mxCell id="VGT_hSf0nk_PRfutWHFS-10" value="" style="shape=cross;whiteSpace=wrap;html=1;rotation=45;" parent="1" vertex="1">
          <mxGeometry x="195" y="250" width="30" height="30" as="geometry" />
        </mxCell>
        <mxCell id="VGT_hSf0nk_PRfutWHFS-11" value="" style="shape=cross;whiteSpace=wrap;html=1;rotation=45;" parent="1" vertex="1">
          <mxGeometry x="275" y="250" width="30" height="30" as="geometry" />
        </mxCell>
        <mxCell id="VGT_hSf0nk_PRfutWHFS-13" value="" style="shape=cross;whiteSpace=wrap;html=1;rotation=45;" parent="1" vertex="1">
          <mxGeometry x="195" y="295" width="30" height="30" as="geometry" />
        </mxCell>
        <mxCell id="VGT_hSf0nk_PRfutWHFS-14" value="" style="shape=cross;whiteSpace=wrap;html=1;rotation=45;" parent="1" vertex="1">
          <mxGeometry x="275" y="295" width="30" height="30" as="geometry" />
        </mxCell>
        <mxCell id="VGT_hSf0nk_PRfutWHFS-17" value="" style="rounded=0;whiteSpace=wrap;html=1;" parent="1" vertex="1">
          <mxGeometry x="235" y="255" width="30" height="60" as="geometry" />
        </mxCell>
        <mxCell id="VGT_hSf0nk_PRfutWHFS-18" value="" style="shape=cylinder3;whiteSpace=wrap;html=1;boundedLbl=1;backgroundOutline=1;size=15;" parent="1" vertex="1">
          <mxGeometry x="240" y="325" width="20" height="60" as="geometry" />
        </mxCell>
        <mxCell id="VGT_hSf0nk_PRfutWHFS-19" value="" style="endArrow=none;html=1;rounded=0;entryX=0.5;entryY=1;entryDx=0;entryDy=0;" parent="1" source="VGT_hSf0nk_PRfutWHFS-18" target="VGT_hSf0nk_PRfutWHFS-17" edge="1">
          <mxGeometry width="50" height="50" relative="1" as="geometry">
            <mxPoint x="200" y="380" as="sourcePoint" />
            <mxPoint x="250" y="330" as="targetPoint" />
          </mxGeometry>
        </mxCell>
        <mxCell id="VGT_hSf0nk_PRfutWHFS-27" value="" style="rounded=0;whiteSpace=wrap;html=1;rotation=30;" parent="1" vertex="1">
          <mxGeometry x="375" y="73" width="100" height="10" as="geometry" />
        </mxCell>
        <mxCell id="VGT_hSf0nk_PRfutWHFS-28" value="" style="rounded=0;whiteSpace=wrap;html=1;rotation=-30;" parent="1" vertex="1">
          <mxGeometry x="375.66999999999996" y="72.5" width="90" height="10" as="geometry" />
        </mxCell>
        <mxCell id="VGT_hSf0nk_PRfutWHFS-29" value="" style="shape=cross;whiteSpace=wrap;html=1;rotation=45;" parent="1" vertex="1">
          <mxGeometry x="370" y="40" width="30" height="30" as="geometry" />
        </mxCell>
        <mxCell id="VGT_hSf0nk_PRfutWHFS-30" value="" style="shape=cross;whiteSpace=wrap;html=1;rotation=45;" parent="1" vertex="1">
          <mxGeometry x="450" y="40" width="30" height="30" as="geometry" />
        </mxCell>
        <mxCell id="VGT_hSf0nk_PRfutWHFS-31" value="" style="shape=cross;whiteSpace=wrap;html=1;rotation=45;" parent="1" vertex="1">
          <mxGeometry x="370" y="85" width="30" height="30" as="geometry" />
        </mxCell>
        <mxCell id="VGT_hSf0nk_PRfutWHFS-32" value="" style="shape=cross;whiteSpace=wrap;html=1;rotation=45;" parent="1" vertex="1">
          <mxGeometry x="450" y="85" width="30" height="30" as="geometry" />
        </mxCell>
        <mxCell id="VGT_hSf0nk_PRfutWHFS-33" value="" style="rounded=0;whiteSpace=wrap;html=1;" parent="1" vertex="1">
          <mxGeometry x="410" y="45" width="30" height="60" as="geometry" />
        </mxCell>
        <mxCell id="VGT_hSf0nk_PRfutWHFS-34" value="" style="shape=cylinder3;whiteSpace=wrap;html=1;boundedLbl=1;backgroundOutline=1;size=15;" parent="1" vertex="1">
          <mxGeometry x="415" y="115" width="20" height="60" as="geometry" />
        </mxCell>
        <mxCell id="VGT_hSf0nk_PRfutWHFS-35" value="" style="endArrow=none;html=1;rounded=0;entryX=0.5;entryY=1;entryDx=0;entryDy=0;" parent="1" source="VGT_hSf0nk_PRfutWHFS-34" target="VGT_hSf0nk_PRfutWHFS-33" edge="1">
          <mxGeometry width="50" height="50" relative="1" as="geometry">
            <mxPoint x="375" y="170" as="sourcePoint" />
            <mxPoint x="425" y="120" as="targetPoint" />
          </mxGeometry>
        </mxCell>
        <mxCell id="VGT_hSf0nk_PRfutWHFS-43" value="" style="shape=cylinder3;whiteSpace=wrap;html=1;boundedLbl=1;backgroundOutline=1;size=15;rotation=-90;" parent="1" vertex="1">
          <mxGeometry x="472.5" y="307.63" width="60" height="40" as="geometry" />
        </mxCell>
        <mxCell id="VGT_hSf0nk_PRfutWHFS-44" value="" style="rounded=0;whiteSpace=wrap;html=1;" parent="1" vertex="1">
          <mxGeometry x="417.5" y="312.63" width="80" height="30" as="geometry" />
        </mxCell>
        <mxCell id="VGT_hSf0nk_PRfutWHFS-45" value="" style="shape=cylinder3;whiteSpace=wrap;html=1;boundedLbl=1;backgroundOutline=1;size=15;rotation=-90;" parent="1" vertex="1">
          <mxGeometry x="397.5" y="307.63" width="60" height="40" as="geometry" />
        </mxCell>
        <mxCell id="VGT_hSf0nk_PRfutWHFS-51" style="rounded=0;orthogonalLoop=1;jettySize=auto;html=1;exitX=0;exitY=0;exitDx=0;exitDy=0;endArrow=none;endFill=0;" parent="1" source="VGT_hSf0nk_PRfutWHFS-47" edge="1">
          <mxGeometry relative="1" as="geometry">
            <mxPoint x="467.5" y="275.13" as="targetPoint" />
          </mxGeometry>
        </mxCell>
        <mxCell id="VGT_hSf0nk_PRfutWHFS-52" style="rounded=0;orthogonalLoop=1;jettySize=auto;html=1;exitX=0;exitY=1;exitDx=0;exitDy=0;endArrow=none;endFill=0;" parent="1" source="VGT_hSf0nk_PRfutWHFS-47" edge="1">
          <mxGeometry relative="1" as="geometry">
            <mxPoint x="467.5" y="275.13" as="targetPoint" />
          </mxGeometry>
        </mxCell>
        <mxCell id="VGT_hSf0nk_PRfutWHFS-53" style="rounded=0;orthogonalLoop=1;jettySize=auto;html=1;exitX=0;exitY=0.25;exitDx=0;exitDy=0;endArrow=none;endFill=0;" parent="1" source="VGT_hSf0nk_PRfutWHFS-47" edge="1">
          <mxGeometry relative="1" as="geometry">
            <mxPoint x="467.5" y="275.13" as="targetPoint" />
          </mxGeometry>
        </mxCell>
        <mxCell id="VGT_hSf0nk_PRfutWHFS-54" style="rounded=0;orthogonalLoop=1;jettySize=auto;html=1;exitX=0;exitY=0.75;exitDx=0;exitDy=0;endArrow=none;endFill=0;" parent="1" source="VGT_hSf0nk_PRfutWHFS-47" edge="1">
          <mxGeometry relative="1" as="geometry">
            <mxPoint x="467.5" y="275.13" as="targetPoint" />
          </mxGeometry>
        </mxCell>
        <mxCell id="VGT_hSf0nk_PRfutWHFS-47" value="" style="shape=delay;whiteSpace=wrap;html=1;rotation=-90;" parent="1" vertex="1">
          <mxGeometry x="447.5" y="195.63" width="30" height="76" as="geometry" />
        </mxCell>
        <mxCell id="VGT_hSf0nk_PRfutWHFS-49" value="" style="endArrow=none;html=1;rounded=0;exitX=0.623;exitY=0.029;exitDx=0;exitDy=0;exitPerimeter=0;" parent="1" source="VGT_hSf0nk_PRfutWHFS-44" edge="1">
          <mxGeometry width="50" height="50" relative="1" as="geometry">
            <mxPoint x="417.5" y="325.13" as="sourcePoint" />
            <mxPoint x="467.5" y="275.13" as="targetPoint" />
          </mxGeometry>
        </mxCell>
        <mxCell id="VGT_hSf0nk_PRfutWHFS-55" value="" style="shape=cylinder3;whiteSpace=wrap;html=1;boundedLbl=1;backgroundOutline=1;size=15;rotation=-90;" parent="1" vertex="1">
          <mxGeometry x="650" y="450" width="60" height="40" as="geometry" />
        </mxCell>
        <mxCell id="VGT_hSf0nk_PRfutWHFS-56" value="" style="rounded=0;whiteSpace=wrap;html=1;" parent="1" vertex="1">
          <mxGeometry x="595" y="455" width="80" height="30" as="geometry" />
        </mxCell>
        <mxCell id="VGT_hSf0nk_PRfutWHFS-57" value="" style="shape=cylinder3;whiteSpace=wrap;html=1;boundedLbl=1;backgroundOutline=1;size=15;rotation=-90;" parent="1" vertex="1">
          <mxGeometry x="575" y="450" width="60" height="40" as="geometry" />
        </mxCell>
        <mxCell id="VGT_hSf0nk_PRfutWHFS-67" style="rounded=0;orthogonalLoop=1;jettySize=auto;html=1;exitX=1;exitY=0.5;exitDx=0;exitDy=0;entryX=0;entryY=0.5;entryDx=0;entryDy=0;endArrow=none;endFill=0;" parent="1" source="VGT_hSf0nk_PRfutWHFS-58" target="VGT_hSf0nk_PRfutWHFS-59" edge="1">
          <mxGeometry relative="1" as="geometry" />
        </mxCell>
        <mxCell id="VGT_hSf0nk_PRfutWHFS-58" value="" style="rounded=0;whiteSpace=wrap;html=1;rotation=30;" parent="1" vertex="1">
          <mxGeometry x="820.97" y="320.63" width="40" height="27" as="geometry" />
        </mxCell>
        <mxCell id="VGT_hSf0nk_PRfutWHFS-59" value="" style="rounded=0;whiteSpace=wrap;html=1;rotation=30;" parent="1" vertex="1">
          <mxGeometry x="870.97" y="340" width="15" height="32" as="geometry" />
        </mxCell>
        <mxCell id="VGT_hSf0nk_PRfutWHFS-60" value="" style="rounded=0;whiteSpace=wrap;html=1;rotation=30;" parent="1" vertex="1">
          <mxGeometry x="885" y="348.63" width="15" height="32" as="geometry" />
        </mxCell>
        <mxCell id="VGT_hSf0nk_PRfutWHFS-61" value="" style="rounded=0;whiteSpace=wrap;html=1;rotation=30;" parent="1" vertex="1">
          <mxGeometry x="900" y="358.63" width="15" height="32" as="geometry" />
        </mxCell>
        <mxCell id="VGT_hSf0nk_PRfutWHFS-62" value="" style="rounded=0;whiteSpace=wrap;html=1;rotation=30;" parent="1" vertex="1">
          <mxGeometry x="770.97" y="280" width="15" height="32" as="geometry" />
        </mxCell>
        <mxCell id="VGT_hSf0nk_PRfutWHFS-63" value="" style="rounded=0;whiteSpace=wrap;html=1;rotation=30;" parent="1" vertex="1">
          <mxGeometry x="785" y="288.63" width="15" height="32" as="geometry" />
        </mxCell>
        <mxCell id="VGT_hSf0nk_PRfutWHFS-66" style="rounded=0;orthogonalLoop=1;jettySize=auto;html=1;exitX=1;exitY=0.5;exitDx=0;exitDy=0;entryX=0;entryY=0.5;entryDx=0;entryDy=0;endArrow=none;endFill=0;" parent="1" source="VGT_hSf0nk_PRfutWHFS-64" target="VGT_hSf0nk_PRfutWHFS-58" edge="1">
          <mxGeometry relative="1" as="geometry" />
        </mxCell>
        <mxCell id="VGT_hSf0nk_PRfutWHFS-64" value="" style="rounded=0;whiteSpace=wrap;html=1;rotation=30;" parent="1" vertex="1">
          <mxGeometry x="800" y="298.63" width="15" height="32" as="geometry" />
        </mxCell>
        <mxCell id="VGT_hSf0nk_PRfutWHFS-68" value="" style="ellipse;whiteSpace=wrap;html=1;rotation=30;" parent="1" vertex="1">
          <mxGeometry x="815.75" y="335.83" width="30" height="23" as="geometry" />
        </mxCell>
        <mxCell id="VGT_hSf0nk_PRfutWHFS-69" value="" style="endArrow=none;html=1;rounded=0;edgeStyle=orthogonalEdgeStyle;curved=1;" parent="1" edge="1">
          <mxGeometry width="50" height="50" relative="1" as="geometry">
            <mxPoint x="805.97" y="351.62" as="sourcePoint" />
            <mxPoint x="840.97" y="375.63" as="targetPoint" />
            <Array as="points">
              <mxPoint x="805.97" y="380.62" />
            </Array>
          </mxGeometry>
        </mxCell>
        <mxCell id="VGT_hSf0nk_PRfutWHFS-70" value="" style="endArrow=none;html=1;rounded=0;edgeStyle=orthogonalEdgeStyle;curved=1;" parent="1" edge="1">
          <mxGeometry width="50" height="50" relative="1" as="geometry">
            <mxPoint x="800" y="360.12" as="sourcePoint" />
            <mxPoint x="835" y="384.13" as="targetPoint" />
            <Array as="points">
              <mxPoint x="800" y="389.12" />
            </Array>
          </mxGeometry>
        </mxCell>
        <mxCell id="VGT_hSf0nk_PRfutWHFS-71" value="" style="rounded=0;whiteSpace=wrap;html=1;" parent="1" vertex="1">
          <mxGeometry x="1065.5" y="472.5" width="60" height="20" as="geometry" />
        </mxCell>
        <mxCell id="VGT_hSf0nk_PRfutWHFS-72" value="" style="triangle;whiteSpace=wrap;html=1;rotation=-90;" parent="1" vertex="1">
          <mxGeometry x="1050" y="405" width="90" height="45" as="geometry" />
        </mxCell>
        <mxCell id="VGT_hSf0nk_PRfutWHFS-73" value="" style="shape=cylinder3;whiteSpace=wrap;html=1;boundedLbl=1;backgroundOutline=1;size=15;rotation=-90;" parent="1" vertex="1">
          <mxGeometry x="990" y="452.5" width="60" height="40" as="geometry" />
        </mxCell>
        <mxCell id="VGT_hSf0nk_PRfutWHFS-74" value="" style="rounded=0;whiteSpace=wrap;html=1;" parent="1" vertex="1">
          <mxGeometry x="935" y="457.5" width="80" height="30" as="geometry" />
        </mxCell>
        <mxCell id="VGT_hSf0nk_PRfutWHFS-75" value="" style="shape=cylinder3;whiteSpace=wrap;html=1;boundedLbl=1;backgroundOutline=1;size=15;rotation=-90;" parent="1" vertex="1">
          <mxGeometry x="915" y="452.5" width="60" height="40" as="geometry" />
        </mxCell>
        <mxCell id="VGT_hSf0nk_PRfutWHFS-76" value="" style="ellipse;whiteSpace=wrap;html=1;" parent="1" vertex="1">
          <mxGeometry x="981" y="462" width="20" height="22.5" as="geometry" />
        </mxCell>
        <mxCell id="VGT_hSf0nk_PRfutWHFS-77" value="" style="ellipse;whiteSpace=wrap;html=1;fillColor=#000000;" parent="1" vertex="1">
          <mxGeometry x="985.5" y="466" width="11" height="14.5" as="geometry" />
        </mxCell>
        <mxCell id="VGT_hSf0nk_PRfutWHFS-80" value="&lt;font style=&quot;font-size: 30px;&quot;&gt;1&lt;/font&gt;" style="text;html=1;strokeColor=none;fillColor=none;align=center;verticalAlign=middle;whiteSpace=wrap;rounded=0;" parent="1" vertex="1">
          <mxGeometry x="45" y="355" width="60" height="30" as="geometry" />
        </mxCell>
        <mxCell id="VGT_hSf0nk_PRfutWHFS-82" value="&lt;font style=&quot;font-size: 30px;&quot;&gt;3&lt;/font&gt;" style="text;html=1;strokeColor=none;fillColor=none;align=center;verticalAlign=middle;whiteSpace=wrap;rounded=0;" parent="1" vertex="1">
          <mxGeometry x="535" y="227.5" width="60" height="30" as="geometry" />
        </mxCell>
        <mxCell id="VGT_hSf0nk_PRfutWHFS-84" value="&lt;font style=&quot;font-size: 30px;&quot;&gt;2&lt;/font&gt;" style="text;html=1;strokeColor=none;fillColor=none;align=center;verticalAlign=middle;whiteSpace=wrap;rounded=0;" parent="1" vertex="1">
          <mxGeometry x="100" y="197.5" width="60" height="30" as="geometry" />
        </mxCell>
        <mxCell id="VGT_hSf0nk_PRfutWHFS-91" value="" style="group;rotation=-90;" parent="1" vertex="1" connectable="0">
          <mxGeometry x="490" y="420" width="76" height="95" as="geometry" />
        </mxCell>
        <mxCell id="VGT_hSf0nk_PRfutWHFS-85" style="rounded=0;orthogonalLoop=1;jettySize=auto;html=1;exitX=0;exitY=0;exitDx=0;exitDy=0;endArrow=none;endFill=0;" parent="VGT_hSf0nk_PRfutWHFS-91" source="VGT_hSf0nk_PRfutWHFS-89" edge="1">
          <mxGeometry relative="1" as="geometry">
            <mxPoint x="47" y="43" as="targetPoint" />
          </mxGeometry>
        </mxCell>
        <mxCell id="VGT_hSf0nk_PRfutWHFS-86" style="rounded=0;orthogonalLoop=1;jettySize=auto;html=1;exitX=0;exitY=1;exitDx=0;exitDy=0;endArrow=none;endFill=0;" parent="VGT_hSf0nk_PRfutWHFS-91" source="VGT_hSf0nk_PRfutWHFS-89" edge="1">
          <mxGeometry relative="1" as="geometry">
            <mxPoint x="47" y="43" as="targetPoint" />
          </mxGeometry>
        </mxCell>
        <mxCell id="VGT_hSf0nk_PRfutWHFS-87" style="rounded=0;orthogonalLoop=1;jettySize=auto;html=1;exitX=0;exitY=0.25;exitDx=0;exitDy=0;endArrow=none;endFill=0;" parent="VGT_hSf0nk_PRfutWHFS-91" source="VGT_hSf0nk_PRfutWHFS-89" edge="1">
          <mxGeometry relative="1" as="geometry">
            <mxPoint x="47" y="43" as="targetPoint" />
          </mxGeometry>
        </mxCell>
        <mxCell id="VGT_hSf0nk_PRfutWHFS-88" style="rounded=0;orthogonalLoop=1;jettySize=auto;html=1;exitX=0;exitY=0.75;exitDx=0;exitDy=0;endArrow=none;endFill=0;" parent="VGT_hSf0nk_PRfutWHFS-91" source="VGT_hSf0nk_PRfutWHFS-89" edge="1">
          <mxGeometry relative="1" as="geometry">
            <mxPoint x="47" y="43" as="targetPoint" />
          </mxGeometry>
        </mxCell>
        <mxCell id="VGT_hSf0nk_PRfutWHFS-89" value="" style="shape=delay;whiteSpace=wrap;html=1;rotation=-180;" parent="VGT_hSf0nk_PRfutWHFS-91" vertex="1">
          <mxGeometry x="-9" y="10" width="30" height="76" as="geometry" />
        </mxCell>
        <mxCell id="VGT_hSf0nk_PRfutWHFS-90" value="" style="endArrow=none;html=1;rounded=0;exitX=0.623;exitY=0.029;exitDx=0;exitDy=0;exitPerimeter=0;" parent="VGT_hSf0nk_PRfutWHFS-91" edge="1">
          <mxGeometry width="50" height="50" relative="1" as="geometry">
            <mxPoint x="86" y="43" as="sourcePoint" />
            <mxPoint x="47" y="43" as="targetPoint" />
          </mxGeometry>
        </mxCell>
        <mxCell id="VGT_hSf0nk_PRfutWHFS-92" value="&lt;font style=&quot;font-size: 30px;&quot;&gt;4&lt;/font&gt;" style="text;html=1;strokeColor=none;fillColor=none;align=center;verticalAlign=middle;whiteSpace=wrap;rounded=0;" parent="1" vertex="1">
          <mxGeometry x="615" y="405" width="60" height="30" as="geometry" />
        </mxCell>
        <mxCell id="VGT_hSf0nk_PRfutWHFS-93" value="&lt;font style=&quot;font-size: 30px;&quot;&gt;5&lt;/font&gt;" style="text;html=1;strokeColor=none;fillColor=none;align=center;verticalAlign=middle;whiteSpace=wrap;rounded=0;" parent="1" vertex="1">
          <mxGeometry x="740" y="402" width="60" height="30" as="geometry" />
        </mxCell>
        <mxCell id="CMw86tVoSeOgUvN4kdg0-1" value="" style="shape=cylinder3;whiteSpace=wrap;html=1;boundedLbl=1;backgroundOutline=1;size=15;rotation=-90;" vertex="1" parent="1">
          <mxGeometry x="810.97" y="457.5" width="60" height="40" as="geometry" />
        </mxCell>
        <mxCell id="CMw86tVoSeOgUvN4kdg0-2" value="" style="rounded=0;whiteSpace=wrap;html=1;" vertex="1" parent="1">
          <mxGeometry x="755.97" y="462.5" width="80" height="30" as="geometry" />
        </mxCell>
        <mxCell id="CMw86tVoSeOgUvN4kdg0-3" value="" style="shape=cylinder3;whiteSpace=wrap;html=1;boundedLbl=1;backgroundOutline=1;size=15;rotation=-90;" vertex="1" parent="1">
          <mxGeometry x="735.97" y="457.5" width="60" height="40" as="geometry" />
        </mxCell>
        <mxCell id="CMw86tVoSeOgUvN4kdg0-6" value="" style="endArrow=none;dashed=1;html=1;dashPattern=1 3;strokeWidth=2;rounded=0;entryX=0.5;entryY=1;entryDx=0;entryDy=0;" edge="1" parent="1" target="VGT_hSf0nk_PRfutWHFS-68">
          <mxGeometry width="50" height="50" relative="1" as="geometry">
            <mxPoint x="800" y="460" as="sourcePoint" />
            <mxPoint x="890" y="330" as="targetPoint" />
          </mxGeometry>
        </mxCell>
        <mxCell id="CMw86tVoSeOgUvN4kdg0-7" value="&lt;font style=&quot;font-size: 30px;&quot;&gt;6&lt;/font&gt;" style="text;html=1;strokeColor=none;fillColor=none;align=center;verticalAlign=middle;whiteSpace=wrap;rounded=0;" vertex="1" parent="1">
          <mxGeometry x="955" y="410" width="60" height="30" as="geometry" />
        </mxCell>
        <mxCell id="CMw86tVoSeOgUvN4kdg0-10" value="" style="shape=curlyBracket;whiteSpace=wrap;html=1;rounded=1;labelPosition=left;verticalLabelPosition=middle;align=right;verticalAlign=middle;" vertex="1" parent="1">
          <mxGeometry x="170" y="70" width="20" height="285" as="geometry" />
        </mxCell>
        <mxCell id="CMw86tVoSeOgUvN4kdg0-11" value="" style="shape=curlyBracket;whiteSpace=wrap;html=1;rounded=1;flipH=1;labelPosition=right;verticalLabelPosition=middle;align=left;verticalAlign=middle;" vertex="1" parent="1">
          <mxGeometry x="525" y="115" width="20" height="257" as="geometry" />
        </mxCell>
        <mxCell id="CMw86tVoSeOgUvN4kdg0-12" value="" style="rounded=0;whiteSpace=wrap;html=1;rotation=30;" vertex="1" parent="1">
          <mxGeometry x="265" y="83" width="100" height="10" as="geometry" />
        </mxCell>
        <mxCell id="CMw86tVoSeOgUvN4kdg0-13" value="" style="rounded=0;whiteSpace=wrap;html=1;rotation=-30;" vertex="1" parent="1">
          <mxGeometry x="265.66999999999996" y="82.5" width="90" height="10" as="geometry" />
        </mxCell>
        <mxCell id="CMw86tVoSeOgUvN4kdg0-14" value="" style="shape=cross;whiteSpace=wrap;html=1;rotation=45;" vertex="1" parent="1">
          <mxGeometry x="260" y="50" width="30" height="30" as="geometry" />
        </mxCell>
        <mxCell id="CMw86tVoSeOgUvN4kdg0-15" value="" style="shape=cross;whiteSpace=wrap;html=1;rotation=45;" vertex="1" parent="1">
          <mxGeometry x="340" y="50" width="30" height="30" as="geometry" />
        </mxCell>
        <mxCell id="CMw86tVoSeOgUvN4kdg0-16" value="" style="shape=cross;whiteSpace=wrap;html=1;rotation=45;" vertex="1" parent="1">
          <mxGeometry x="260" y="95" width="30" height="30" as="geometry" />
        </mxCell>
        <mxCell id="CMw86tVoSeOgUvN4kdg0-17" value="" style="shape=cross;whiteSpace=wrap;html=1;rotation=45;" vertex="1" parent="1">
          <mxGeometry x="340" y="95" width="30" height="30" as="geometry" />
        </mxCell>
        <mxCell id="CMw86tVoSeOgUvN4kdg0-18" value="" style="rounded=0;whiteSpace=wrap;html=1;" vertex="1" parent="1">
          <mxGeometry x="300" y="55" width="30" height="60" as="geometry" />
        </mxCell>
        <mxCell id="CMw86tVoSeOgUvN4kdg0-19" value="" style="shape=cylinder3;whiteSpace=wrap;html=1;boundedLbl=1;backgroundOutline=1;size=15;" vertex="1" parent="1">
          <mxGeometry x="305" y="125" width="20" height="60" as="geometry" />
        </mxCell>
        <mxCell id="CMw86tVoSeOgUvN4kdg0-20" value="" style="endArrow=none;html=1;rounded=0;entryX=0.5;entryY=1;entryDx=0;entryDy=0;" edge="1" source="CMw86tVoSeOgUvN4kdg0-19" target="CMw86tVoSeOgUvN4kdg0-18" parent="1">
          <mxGeometry width="50" height="50" relative="1" as="geometry">
            <mxPoint x="265" y="180" as="sourcePoint" />
            <mxPoint x="315" y="130" as="targetPoint" />
          </mxGeometry>
        </mxCell>
        <mxCell id="CMw86tVoSeOgUvN4kdg0-23" value="" style="shape=crossbar;whiteSpace=wrap;html=1;rounded=1;direction=south;" vertex="1" parent="1">
          <mxGeometry x="335.67" y="140" width="20" height="347.5" as="geometry" />
        </mxCell>
        <mxCell id="CMw86tVoSeOgUvN4kdg0-24" value="&lt;font style=&quot;font-size: 27px;&quot;&gt;50-100m&lt;/font&gt;" style="text;html=1;strokeColor=none;fillColor=none;align=center;verticalAlign=middle;whiteSpace=wrap;rounded=0;" vertex="1" parent="1">
          <mxGeometry x="380" y="410" width="60" height="30" as="geometry" />
        </mxCell>
        <mxCell id="CMw86tVoSeOgUvN4kdg0-25" value="" style="shape=crossbar;whiteSpace=wrap;html=1;rounded=1;" vertex="1" parent="1">
          <mxGeometry x="950" y="515" width="140" height="20" as="geometry" />
        </mxCell>
        <mxCell id="CMw86tVoSeOgUvN4kdg0-26" value="&lt;font style=&quot;font-size: 25px;&quot;&gt;10m&lt;/font&gt;" style="text;html=1;strokeColor=none;fillColor=none;align=center;verticalAlign=middle;whiteSpace=wrap;rounded=0;" vertex="1" parent="1">
          <mxGeometry x="990" y="530" width="60" height="30" as="geometry" />
        </mxCell>
      </root>
    </mxGraphModel>
  </diagram>
</mxfile>
